# xmcd
#
# Track frame offsets:
#	150
#	11139
#	34490
#	63678
#	85018
#	107110
#	130792
#	149599
#	169180
#	193141
#	222581
#	243764
#	263588
#	284522
#	307150
#	331835
#
# Disc length: 4729 seconds
#
# Revision: 3
# Processed by: cddbd v1.5.2PL0 Copyright (c) Steve Scherf et al.
# Submitted via: audiograbber 1.83.01
#
DISCID=f9127710
DTITLE=TechnoClub - Vol.37 [CD1)
DYEAR=2011
DGENRE=Trance
TTITLE0=Talla 2XLC - Open The Gate (Intro)
TTITLE1=Gareth Emery and Ashley Wallbridge - Mansion
TTITLE2=Wellenrausch - Everybody Loved
TTITLE3=Digital Ghosts - Breeze
TTITLE4=Leon Bolier - Staircase
TTITLE5=Jon O'Bir - Music Database
TTITLE6=Gareth Emery and Ben Gold - Flash
TTITLE7=W&W - Beta (Alpha Mix)
TTITLE8=Marlo - Whispers
TTITLE9=Ferry Corsten feat. Armin Van Buren - Brute
TTITLE10=Aerian - Mahé (Temple One Remix)
TTITLE11=André Visior - Moonraker (Daniel Kandi Bangin' Remix)
TTITLE12=Talla 2XLC pres. Akato - Satisfraction (VV Mix)
TTITLE13=Bryan Kearney and Jamie Walker - We'll Never Die
TTITLE14=Tom Colontonio feat. Cibon - The Sun
TTITLE15=Solid Sleep and Talla 2XLC - Visions Of A Better Tomorrow (Talla 2 XLCs 
TTITLE15=VV MIx)
EXTD=
EXTT0=
EXTT1=
EXTT2=
EXTT3=
EXTT4=
EXTT5=
EXTT6=
EXTT7=
EXTT8=
EXTT9=
EXTT10=
EXTT11=
EXTT12=
EXTT13=
EXTT14=
EXTT15=
PLAYORDER=
